<svg xmlns="http://www.w3.org/2000/svg" xmlns:xlink="http://www.w3.org/1999/xlink" version="1.1" x="0px" y="0px" viewBox="0 0 100 125" enable-background="new 0 0 100 100" xml:space="preserve">
	<path d="M23.637,21.791c-0.232-0.062-0.476,0.033-0.607,0.232c-0.132,0.2-0.122,0.461,0.025,0.651  c2.918,3.753,0.1,9.885,0.072,9.947c-0.13,0.277-0.013,0.607,0.261,0.74c0.076,0.036,0.153,0.054,0.23,0.055  c0.21,0.005,0.413-0.109,0.513-0.309c0.594-1.188,3.455-3.549,4.507-4.358c0.14-0.108,0.221-0.275,0.218-0.452  C28.771,23.179,23.687,21.803,23.637,21.791z"/><path d="M76.734,24.011c-0.133-0.2-0.376-0.295-0.606-0.238c-0.02,0.005-0.502,0.129-1.159,0.437  c-1.497,0.703-4.021,2.421-4.107,6.032c-0.005,0.177,0.074,0.346,0.214,0.455c1.046,0.816,3.891,3.197,4.474,4.391  c0.134,0.273,0.464,0.389,0.739,0.259c0.001,0,0.001-0.001,0.002-0.002c0.276-0.13,0.398-0.459,0.268-0.738  c-0.027-0.061-2.806-6.206,0.146-9.946C76.851,24.475,76.862,24.213,76.734,24.011z"/>
	<path d="M57.357,77.198c-1.081-1.701-2.528-2.694-4.075-2.802c-0.442-0.03-0.901-0.043-1.352,0.053  c-4.316,0.92-5.012,6.443-5.024,6.604c-0.1,1.458,0.43,2.863,1.493,3.963c1.041,1.075,2.471,1.728,4.028,1.832  c0.699,0.047,1.388-0.015,2.052-0.188c2.365-0.616,4.056-2.546,4.211-4.798C58.788,80.431,58.276,78.644,57.357,77.198z   M49.246,78.988c0.704-1.321,1.389-2.914,3.66-2.962c1.71-0.036,2.781,1.394,3.476,2.78C53.489,78.061,51.016,78.402,49.246,78.988z  "/>
	<path d="M80.618,38.339c-0.614-0.76-1.205-1.701-1.174-1.798c0.522-1.676,1.09-3.653,1.555-5.683  c1.53-6.696,1.295-11.08-0.665-12.346c-1.166-0.755-2.428-1.077-3.732-1.077c-4.383,0-9.251,3.639-12.638,6.781  c-0.093,0.085-0.184,0.17-0.274,0.254c-0.002,0.009-0.727,0.261-1.5,0.261c-0.333,0-0.674-0.047-0.973-0.178  c-3.299-1.002-6.775-1.51-10.37-1.51c-0.385,0-0.771,0.004-1.16,0.016c-3.569,0.109-6.979,0.505-10.158,1.18  c0.059,0.052,0.082,0.076,0.072,0.076c-0.168,0-8.669-6.116-15.022-6.116c-0.067,0-0.134,0.001-0.199,0.002  c-1.768,0.035-3.381,0.528-4.362,1.958c-4.369,6.354-0.144,14.034-0.026,14.203l-1.329,1.152C6.757,47.895,3.813,65.806,3.25,70.283  c0.556-0.058,1.154-0.082,1.781-0.082c3.161,0,7.06,0.663,10.167,1.324c0.05,0.011,0.105,0.021,0.156,0.031  c4.826,1.037,10.267,2.62,14.199,4.133c1.71,0.675,3.324,1.534,4.857,2.479c2.332,1.437,4.474,3.074,6.452,4.593  c4.194,3.221,7.86,6.034,11.792,6.034c0.319,0,0.639-0.017,0.961-0.056c4.634-0.552,7.691-3.222,10.929-6.051  c1.243-1.087,2.524-2.181,3.909-3.193c0.977-0.712,1.994-1.389,3.121-1.966c5.652-2.912,10.924-4.683,15.167-5.76  c4.244-1.075,7.46-1.456,9.003-1.588C94.783,66.236,90.491,50.493,80.618,38.339z M37.066,56.795  c-0.384-1.469,0.497-2.972,1.967-3.354c1.472-0.384,2.974,0.496,3.357,1.969c0.383,1.469-0.498,2.972-1.967,3.355  C38.952,59.147,37.449,58.267,37.066,56.795z M60.449,55.726c0.409-1.462,1.926-2.317,3.39-1.909  c1.464,0.409,2.317,1.927,1.91,3.391c-0.407,1.463-1.928,2.318-3.39,1.91C60.894,58.708,60.042,57.188,60.449,55.726z   M69.091,51.474c-2.511-1.086-4.593-1.614-6.365-1.614c-5.063,0.001-6.044,4.364-6.521,6.496l-1.861,9.621l-0.211,1.088l1.066,0.297  c8.541,2.386,11.157,8.814,11.906,11.644c-1.229,0.938-2.364,1.917-3.352,2.779c-3.226,2.819-6.012,5.255-10.279,5.762  c-0.271,0.031-0.547,0.049-0.819,0.049c-3.526,0-7.018-2.682-11.061-5.786c-1.739-1.335-3.688-2.83-5.827-4.205  c1.937-7.563,10.021-10.041,11.67-10.471l1.073-0.279l-0.191-1.092l-1.702-9.687c-0.441-2.134-1.36-6.573-6.554-6.573  c-1.74,0-3.782,0.493-6.238,1.506C25.976,54.244,18.203,63.1,14.537,70.16c-3.805-0.771-6.999-1.162-9.506-1.162  c-0.132,0-0.26,0.001-0.389,0.003c0.954-6.259,4.283-21.598,14.85-32.614l1.288-1.116l0.818-0.71l-0.595-0.85  c-0.226-0.409-3.872-7.231,0.005-12.87c0.641-0.935,1.752-1.404,3.396-1.437l0.174-0.002c3.393,0,8.05,1.885,13.845,5.601  c0.647,0.416,0.803,0.514,1.178,0.514h0.832l0.097-0.256c2.891-0.566,5.979-0.902,9.194-1c0.375-0.012,0.75-0.017,1.123-0.017  c3.442,0,6.792,0.484,9.962,1.441c0.402,0.164,0.865,0.247,1.38,0.247c0.816,0,1.787-0.115,2.313-0.591l0.006,0.007l0.271-0.251  c3.179-2.947,7.808-6.461,11.821-6.461c1.151,0,2.159,0.289,3.079,0.884c1.129,0.729,1.759,4.018,0.147,11.068  c-0.395,1.721-0.91,3.603-1.53,5.593c-0.115,0.363-0.271,0.859,1.387,2.916C88.485,49.931,92.76,63.55,94.236,69.13  c-1.618,0.193-3.971,0.559-6.839,1.242C83.91,63.45,76.899,54.855,69.091,51.474z"/>
	<!-- <text x="0" y="115" fill="#000000" font-size="5px" font-weight="bold" font-family="'Helvetica Neue', Helvetica, Arial-Unicode, Arial, Sans-serif">Created by Catherine Please</text> -->
	<!-- <text x="0" y="120" fill="#000000" font-size="5px" font-weight="bold" font-family="'Helvetica Neue', Helvetica, Arial-Unicode, Arial, Sans-serif">from the Noun Project</text> -->
</svg>